<?xml version="1.0" encoding="UTF-8" standalone="no"?><!DOCTYPE svg PUBLIC "-//W3C//DTD SVG 1.1//EN" "http://www.w3.org/Graphics/SVG/1.1/DTD/svg11.dtd"><svg width="100%" height="100%" viewBox="0 0 4817 2296" version="1.1" xmlns="http://www.w3.org/2000/svg" xmlns:xlink="http://www.w3.org/1999/xlink" xml:space="preserve" xmlns:serif="http://www.serif.com/" style="fill-rule:evenodd;clip-rule:evenodd;stroke-linejoin:round;stroke-miterlimit:1.41421;"><g><path d="M39.5,2266.44c-20.917,-15.18 -34.017,-38.642 -39.3,-70.321c-0.879,-9.242 1.104,-16.388 5.954,-21.459c4.838,-5.054 11.875,-7.604 21.121,-7.604c8.796,0 15.408,2.092 19.817,6.283c4.391,4.188 7.479,11.121 9.241,20.796c3.075,14.967 10.009,25.313 20.796,31.029c10.788,5.726 27.625,8.605 50.517,8.605l95.087,0c19.371,0 34.23,-2.205 44.575,-6.609c10.346,-4.408 17.721,-11.77 22.129,-22.116c4.392,-10.342 6.592,-24.988 6.592,-43.925c0,-28.163 -5.275,-47.538 -15.837,-58.096c-10.571,-10.583 -29.721,-15.85 -57.459,-15.85l-81.871,0c-41.391,0 -72.208,-10.134 -92.454,-30.388c-20.246,-20.237 -30.379,-51.275 -30.379,-93.108c0,-41.371 10.009,-72.087 30.054,-92.1c20.017,-20.05 50.73,-30.071 92.109,-30.071l78.575,0c69.562,0 109.625,29.071 120.187,87.192c1.317,9.242 -0.442,16.387 -5.279,21.437c-4.85,5.079 -12.117,7.605 -21.792,7.605c-8.812,0 -15.408,-2.2 -19.812,-6.609c-4.408,-4.375 -7.254,-11.233 -8.588,-20.475c-3.52,-12.758 -10.125,-21.546 -19.8,-26.412c-9.687,-4.834 -24.666,-7.254 -44.916,-7.254l-78.575,0c-18.055,0 -31.8,1.987 -41.275,5.937c-9.467,3.95 -16.067,10.667 -19.796,20.154c-3.75,9.458 -5.621,23 -5.621,40.596c0,18.058 1.975,31.817 5.938,41.271c3.966,9.487 10.683,16.287 20.154,20.479c9.458,4.183 23.216,6.254 41.27,6.254l81.871,0c43.584,0 75.946,10.592 97.075,31.709c21.138,21.12 31.692,53.712 31.692,97.729c0,43.579 -10.554,75.846 -31.692,96.754c-21.129,20.9 -53.491,31.35 -97.075,31.35l-95.087,0c-37.859,0 -67.242,-7.604 -88.146,-22.783Z" style="fill:#545859;fill-rule:nonzero;"/><path d="M548.871,2261.5l0,-363.863l-128.1,0c-18.488,0 -27.742,-9.241 -27.742,-27.729c0,-18.487 9.254,-27.729 27.742,-27.729l311.683,0c18.484,0 27.729,9.242 27.729,27.729c0,18.488 -9.245,27.729 -27.729,27.729l-128.112,0l0,363.863c0,8.812 -2.417,15.637 -7.267,20.475c-4.854,4.833 -11.658,7.25 -20.463,7.25c-18.499,0 -27.741,-9.238 -27.741,-27.725Z" style="fill:#545859;fill-rule:nonzero;"/><path d="M1113.44,2241.02c4.854,4.837 7.266,11.658 7.266,20.475c0,8.812 -2.412,15.637 -7.266,20.475c-4.838,4.833 -11.659,7.25 -20.459,7.25l-237.066,0c-8.817,0 -15.625,-2.417 -20.475,-7.25c-4.838,-4.838 -7.25,-11.663 -7.25,-20.475l0,-392.238c0,-8.808 2.412,-15.637 7.25,-20.471c4.85,-4.837 11.658,-7.283 20.475,-7.283l237.066,0c8.8,0 15.621,2.446 20.459,7.283c4.854,4.834 7.266,11.663 7.266,20.471c0,8.817 -2.412,15.613 -7.266,20.475c-4.838,4.838 -11.659,7.255 -20.459,7.255l-209.325,0l0,138.674l131.405,0c8.8,0 15.62,2.421 20.475,7.259c4.833,4.858 7.249,11.658 7.249,20.467c0,8.812 -2.416,15.637 -7.249,20.474c-4.855,4.834 -11.675,7.259 -20.475,7.259l-131.405,0l0,142.646l209.325,0c8.8,0 15.621,2.416 20.459,7.254Z" style="fill:#545859;fill-rule:nonzero;"/><path d="M1449.1,1966.31c0,-24.637 -5.279,-42.341 -15.854,-53.146c-10.558,-10.775 -28.388,-16.174 -53.479,-16.174l-126.788,0l0,158.479l126.788,0c25.091,0 42.921,-5.296 53.479,-15.859c10.575,-10.558 15.854,-28.375 15.854,-53.466l0,-19.834Zm31.034,103.692c-16.296,21.121 -39.846,34.125 -70.655,38.958l86.509,143.938c2.629,4.408 3.945,9.246 3.945,14.537c0,9.7 -4.845,17.38 -14.52,23.104c-5.725,3.521 -10.784,5.296 -15.18,5.296c-8.816,0 -16.299,-4.866 -22.462,-14.537l-100.371,-167.067l-1.971,-3.312l-92.45,0l0,150.579c0,8.812 -2.429,15.637 -7.262,20.475c-4.854,4.833 -11.675,7.25 -20.475,7.25c-8.817,0 -15.625,-2.417 -20.475,-7.25c-4.838,-4.838 -7.254,-11.663 -7.254,-20.475l0,-392.238c0,-8.808 2.416,-15.637 7.254,-20.471c4.85,-4.837 11.658,-7.283 20.475,-7.283l154.525,0c40.492,0 71.417,10.692 92.775,32.029c21.35,21.359 32.017,52.284 32.017,92.775l0,19.834c0,34.766 -8.138,62.712 -24.425,83.858Z" style="fill:#545859;fill-rule:nonzero;"/><path d="M1936.23,1848.79c4.838,4.834 7.258,11.663 7.258,20.471l0,392.238c0,8.812 -2.42,15.637 -7.258,20.475c-4.846,4.833 -11.671,7.25 -20.471,7.25c-5.279,0 -10.133,-1.317 -14.525,-3.95c-4.408,-2.654 -8.817,-6.821 -13.217,-12.546l-251.575,-324.225l0,312.996c0,8.812 -2.437,15.637 -7.27,20.475c-4.85,4.833 -11.675,7.25 -20.475,7.25c-8.813,0 -15.625,-2.417 -20.475,-7.25c-4.834,-4.838 -7.255,-11.663 -7.255,-20.475l0,-392.238c0,-8.808 2.421,-15.637 7.255,-20.471c4.85,-4.837 11.662,-7.283 20.475,-7.283c5.283,0 10.008,1.346 14.2,3.975c4.183,2.633 8.695,6.825 13.545,12.55l251.575,324.225l0,-312.996c0,-8.808 2.417,-15.637 7.267,-20.471c4.838,-4.837 11.663,-7.283 20.475,-7.283c8.8,0 15.625,2.446 20.471,7.283Z" style="fill:#545859;fill-rule:nonzero;"/><path d="M2325.88,2241.02c4.85,4.837 7.271,11.658 7.271,20.475c0,8.812 -2.421,15.637 -7.271,20.475c-4.833,4.833 -11.662,7.25 -20.458,7.25l-237.067,0c-8.812,0 -15.625,-2.417 -20.471,-7.25c-4.837,-4.838 -7.258,-11.663 -7.258,-20.475l0,-392.238c0,-8.808 2.421,-15.637 7.258,-20.471c4.846,-4.837 11.659,-7.283 20.471,-7.283l237.067,0c8.796,0 15.625,2.446 20.458,7.283c4.85,4.834 7.271,11.663 7.271,20.471c0,8.817 -2.421,15.613 -7.271,20.475c-4.833,4.838 -11.662,7.255 -20.458,7.255l-209.325,0l0,138.674l131.408,0c8.796,0 15.621,2.421 20.471,7.259c4.833,4.858 7.254,11.658 7.254,20.467c0,8.812 -2.421,15.637 -7.254,20.474c-4.85,4.834 -11.675,7.259 -20.471,7.259l-131.408,0l0,142.646l209.325,0c8.796,0 15.625,2.416 20.458,7.254Z" style="fill:#545859;fill-rule:nonzero;"/><path d="M2765.2,1848.79c4.838,4.834 7.25,11.663 7.25,20.471l0,392.238c0,8.812 -2.412,15.637 -7.25,20.475c-4.837,4.833 -11.662,7.25 -20.475,7.25c-5.266,0 -10.104,-1.317 -14.512,-3.95c-4.404,-2.654 -8.813,-6.821 -13.217,-12.546l-251.571,-324.225l0,312.996c0,8.812 -2.45,15.637 -7.283,20.475c-4.863,4.833 -11.688,7.25 -20.475,7.25c-8.817,0 -15.621,-2.417 -20.475,-7.25c-4.838,-4.838 -7.254,-11.663 -7.254,-20.475l0,-392.238c0,-8.808 2.416,-15.637 7.254,-20.471c4.854,-4.837 11.658,-7.283 20.475,-7.283c5.291,0 10.021,1.346 14.212,3.975c4.167,2.633 8.679,6.825 13.546,12.55l251.571,324.225l0,-312.996c0,-8.808 2.417,-15.637 7.254,-20.471c4.838,-4.837 11.663,-7.283 20.475,-7.283c8.813,0 15.638,2.446 20.475,7.283Z" style="fill:#545859;fill-rule:nonzero;"/><path d="M2868.94,2261.5l0,-392.238c0,-18.483 9.246,-27.754 27.729,-27.754c18.487,0 27.758,9.271 27.758,27.754l0,364.509l182.896,0c18.488,0 27.729,9.237 27.729,27.729c0,18.487 -9.241,27.725 -27.729,27.725l-210.654,0c-18.483,0 -27.729,-9.238 -27.729,-27.725Z" style="fill:#545859;fill-rule:nonzero;"/><path d="M3295.57,2129.43l161.133,0l-82.546,-200.095l-78.587,200.095Zm273.392,134.046c0,10.563 -5.967,18.271 -17.842,23.108c-3.975,1.746 -8.383,2.634 -13.221,2.634c-10.558,0 -18.271,-5.938 -23.108,-17.842l-35.65,-86.487l-205.363,0l-34.341,86.487c-4.834,11.904 -12.542,17.842 -23.109,17.842c-4.404,0 -8.592,-0.888 -12.542,-2.634c-12.333,-4.404 -18.487,-12.116 -18.487,-23.108c0,-4.858 0.887,-9.262 2.633,-13.217l157.154,-386.966c6.613,-14.509 16.955,-21.792 31.067,-21.792l1.284,0c14.541,0.888 24.237,8.167 29.074,21.792l159.792,386.966c1.75,3.955 2.659,8.359 2.659,13.217Z" style="fill:#545859;fill-rule:nonzero;"/><path d="M3918.53,2142.62c0,-24.633 -5.267,-42.15 -15.854,-52.5c-10.558,-10.317 -28.371,-15.504 -53.471,-15.504l-153.204,0l0,159.15l153.204,0c24.642,0 42.346,-5.296 53.15,-15.855c10.775,-10.562 16.175,-28.187 16.175,-52.82l0,-22.471Zm-222.529,-123.488l165.083,0c11.446,-1.316 19.805,-6.687 25.092,-16.171c5.271,-9.462 7.904,-21.658 7.904,-36.654l0,-17.808c0,-18.917 -3.954,-32.25 -11.875,-39.954c-7.9,-7.717 -21.791,-11.558 -41.596,-11.558l-144.608,0l0,122.145Zm277.988,123.488l0,22.471c0,40.483 -10.667,71.308 -32.03,92.425c-21.333,21.141 -52.287,31.704 -92.754,31.704l-180.937,0c-8.809,0 -15.638,-2.417 -20.471,-7.25c-4.838,-4.838 -7.254,-11.663 -7.254,-20.475l0,-392.238c0,-8.808 2.416,-15.637 7.254,-20.471c4.833,-4.837 11.662,-7.283 20.471,-7.283l172.341,0c34.767,0 61.638,9.271 80.559,27.754c18.912,18.488 28.396,44.9 28.396,79.242l0,17.808c0,14.109 -2.446,27.084 -7.284,38.963c-4.833,11.904 -11.662,21.792 -20.446,29.716c34.763,20.259 52.155,56.134 52.155,107.634Z" style="fill:#545859;fill-rule:nonzero;"/><path d="M4272.38,2233.77c24.209,0 42.833,-2.879 55.792,-8.605c13,-5.716 22.375,-15.066 28.083,-28.05c5.708,-12.979 8.584,-31.591 8.584,-55.804l0,-151.891c0,-23.75 -2.876,-42.238 -8.584,-55.459c-5.708,-13.191 -15.167,-22.675 -28.416,-28.4c-13.209,-5.695 -31.713,-8.57 -55.459,-8.57l-79.25,0c-23.75,-0.425 -42.233,2.208 -55.45,7.929c-13.221,5.721 -22.679,15.179 -28.375,28.4c-5.75,13.191 -8.6,31.679 -8.6,55.458l0,152.533c0,24.213 2.85,42.825 8.6,55.804c5.696,12.984 15.046,22.334 28.05,28.05c12.979,5.726 31.608,8.605 55.775,8.605l79.25,0Zm-191.15,19.475c-23.996,-23.988 -35.979,-61.313 -35.979,-111.934l0,-152.533c0,-50.625 12.087,-87.946 36.321,-111.937c24.183,-23.992 61.395,-35.763 111.558,-35.334l79.25,0c50.625,0 87.917,12.013 111.958,36.004c23.959,23.992 35.959,61.313 35.959,111.909l0,151.891c0,50.621 -12,87.946 -35.959,111.934c-24.041,23.996 -61.333,35.979 -111.958,35.979l-79.25,0c-50.612,0 -87.913,-11.983 -111.9,-35.979Z" style="fill:#545859;fill-rule:nonzero;"/><path d="M4757.54,1966.31c0,-24.637 -5.25,-42.341 -15.834,-53.146c-10.583,-10.775 -28.375,-16.174 -53.499,-16.174l-126.792,0l0,158.479l126.792,0c25.124,0 42.916,-5.296 53.499,-15.859c10.584,-10.558 15.834,-28.375 15.834,-53.466l0,-19.834Zm31.041,103.692c-16.333,21.121 -39.875,34.125 -70.624,38.958l86.458,143.938c2.624,4.408 3.958,9.246 3.958,14.537c0,9.7 -4.833,17.38 -14.5,23.104c-5.75,3.521 -10.792,5.296 -15.208,5.296c-8.834,0 -16.292,-4.866 -22.459,-14.537l-100.375,-167.067l-1.958,-3.312l-92.458,0l0,150.579c0,8.812 -2.459,15.637 -7.292,20.475c-4.834,4.833 -11.625,7.25 -20.459,7.25c-8.833,0 -15.625,-2.417 -20.457,-7.25c-4.834,-4.838 -7.25,-11.663 -7.25,-20.475l0,-392.238c0,-8.808 2.416,-15.637 7.25,-20.471c4.832,-4.837 11.624,-7.283 20.457,-7.283l154.543,0c40.458,0 71.416,10.692 92.75,32.029c21.375,21.359 32.041,52.284 32.041,92.775l0,19.834c0,34.766 -8.125,62.712 -24.417,83.858Z" style="fill:#545859;fill-rule:nonzero;"/><path d="M3109.72,679.904c30.55,-24.8 59.891,-57.287 59.891,-103.904c0,-63.225 -44.958,-114.492 -100.412,-114.492l-692.229,0l-47.546,137.359l634.071,1.8c18.512,0 8.896,8.812 8.896,8.812l-169.167,132.088l49.358,133.916l257.138,-195.579Z" style="fill:#107eb3;fill-rule:nonzero;"/><path d="M2535.61,99.642c-13.387,-36.996 -34.391,-75.446 -78.408,-90.817c-59.738,-20.854 -122.912,4.725 -141.179,57.096l-228.2,653.533l114.046,90.225l210.666,-598.129c6.142,-17.463 11.259,-5.429 11.259,-5.429l68.987,203.266l142.621,-2.499l-99.792,-307.246Z" style="fill:#545859;fill-rule:nonzero;"/><path d="M1779.3,465.917c-39.859,1.266 -83.363,9.295 -111.242,46.754c-37.746,50.7 -31.5,119.296 14.017,153.179l568.242,423.242l121.054,-81.117l-519.404,-389.092c-15.221,-11.337 -1.984,-12.437 -1.984,-12.437l217.746,-2.554l39.454,-137.517l-327.883,-0.458Z" style="fill:#dc3f79;fill-rule:nonzero;"/><path d="M2755.96,1462.22c33.534,23.592 74.055,43.604 118.492,29.529c60.242,-19.183 94.5,-80.504 76.525,-137.004l-224.196,-705.263l-146.354,-6.85l203.692,646.663c6.045,18.775 -5.504,11.55 -5.504,11.55l-204.371,-152.346l-116.234,89.846l297.95,223.875Z" style="fill:#98ca5d;fill-rule:nonzero;"/><path d="M1878.24,1328.52c-11.396,39.741 -17.117,84.717 10.975,121.879c38.087,50.517 107.691,62.225 155.45,26.196l596.62,-449.867l-41.787,-140.633l-547.533,410.692c-15.909,12.037 -12.871,-1.263 -12.871,-1.263l78.966,-250.929l-121.57,-77.542l-118.25,361.467Z" style="fill:#f4802d;fill-rule:nonzero;"/><path d="M3109.72,679.904c30.55,-24.8 59.891,-57.287 59.891,-103.904c0,-63.225 -44.958,-114.492 -100.412,-114.492l-692.229,0l-47.546,137.359l634.071,1.8c18.512,0 8.896,8.812 8.896,8.812l-169.167,132.088l49.358,133.916l257.138,-195.579Z" style="fill:#107eb3;fill-rule:nonzero;"/><path d="M2535.61,99.642c-13.387,-36.996 -34.391,-75.446 -78.408,-90.817c-59.738,-20.854 -122.912,4.725 -141.179,57.096l-228.2,653.533l114.046,90.225l210.666,-598.129c6.142,-17.463 11.259,-5.429 11.259,-5.429l68.987,203.266l142.621,-2.499l-99.792,-307.246Z" style="fill:#545859;fill-rule:nonzero;"/><path d="M1779.3,465.917c-39.859,1.266 -83.363,9.295 -111.242,46.754c-37.746,50.7 -31.5,119.296 14.017,153.179l568.242,423.242l121.054,-81.117l-519.404,-389.092c-15.221,-11.337 -1.984,-12.437 -1.984,-12.437l217.746,-2.554l39.454,-137.517l-327.883,-0.458Z" style="fill:#dc3f79;fill-rule:nonzero;"/><path d="M2755.96,1462.22c33.534,23.592 74.055,43.604 118.492,29.529c60.242,-19.183 94.5,-80.504 76.525,-137.004l-224.196,-705.263l-146.354,-6.85l203.692,646.663c6.045,18.775 -5.504,11.55 -5.504,11.55l-204.371,-152.346l-116.234,89.846l297.95,223.875Z" style="fill:#98ca5d;fill-rule:nonzero;"/><path d="M1878.24,1328.52c-11.396,39.741 -17.117,84.717 10.975,121.879c38.087,50.517 107.691,62.225 155.45,26.196l596.62,-449.867l-41.787,-140.633l-547.533,410.692c-15.909,12.037 -12.871,-1.263 -12.871,-1.263l78.966,-250.929l-121.57,-77.542l-118.25,361.467Z" style="fill:#f4802d;fill-rule:nonzero;"/></g></svg>